# xmcd
#
# Track frame offsets:
#	150
#	6620
#	16837
#	21382
#	32397
#	37942
#	53815
#	63907
#	74695
#	82372
#	102822
#	116310
#	131300
#	144575
#	154980
#	173260
#	188292
#	200095
#	206072
#	221425
#	235427
#
# Disc length: 3279 seconds
#
# Revision: 0
# Processed by: cddbd v1.5PL3 Copyright (c) Steve Scherf et al.
# Submitted via: dBpowerAMP V4.0
#
DISCID=200ccd15
DTITLE=Tammy Wynette and George Jones - On Stage
DYEAR=1900
DGENRE=Country
TTITLE0=Welcome To My World
TTITLE1=Another Chance
TTITLE2=Your Good Girl's Gonna Go Bad
TTITLE3=D.I.V.O.R.C.E.
TTITLE4=Singing My Song
TTITLE5='Til I Can Make It On My Own
TTITLE6=Womanhood
TTITLE7=Fairy Tales
TTITLE8=When The Grass Grows Over Me
TTITLE9=Medley: Amazing Grace/I'll Fly Away/Will The Circle Be Unbroken/I Saw The Light
TTITLE10=Stand By Your Man
TTITLE11=Cryin' In The Rain
TTITLE12=No Show Jones
TTITLE13=The Race Is On
TTITLE14=Bartender Blues
TTITLE15=I Always Get Lucky With You
TTITLE16=She's My Rock
TTITLE17=Chicken Reel
TTITLE18=He Stopped Loving Her Today
TTITLE19=Who's Gonna Fill Their Shoes
TTITLE20=The One I Loved Back Then
EXTD=
EXTT0=
EXTT1=
EXTT2=
EXTT3=
EXTT4=
EXTT5=
EXTT6=
EXTT7=
EXTT8=
EXTT9=
EXTT10=
EXTT11=
EXTT12=
EXTT13=
EXTT14=
EXTT15=
EXTT16=
EXTT17=
EXTT18=
EXTT19=
EXTT20=
PLAYORDER=
